<?xml version="1.0" encoding="UTF-8" standalone="no"?>
<svg xmlns="http://www.w3.org/2000/svg" viewBox="0 0 200 200" width="200" height="200">
  <!-- Fondo galaxia con gradiente -->
  <defs>
    <radialGradient id="galaxyGradient" cx="50%" cy="50%" r="50%" fx="50%" fy="50%">
      <stop offset="0%" stop-color="#6A11CB" />
      <stop offset="30%" stop-color="#4568DC" />
      <stop offset="70%" stop-color="#2B32B2" />
      <stop offset="100%" stop-color="#1A1A5A" />
    </radialGradient>
    
    <!-- Efecto de resplandor para los bordes -->
    <filter id="glow" x="-20%" y="-20%" width="140%" height="140%">
      <feGaussianBlur in="SourceGraphic" stdDeviation="3" result="blur" />
      <feColorMatrix in="blur" mode="matrix" values="
        1 0 0 0 0
        0 1 0 0 0
        0 0 1 0 0
        0 0 0 18 -7" result="glow" />
      <feComposite in="SourceGraphic" in2="glow" operator="atop" />
    </filter>
  </defs>
  
  <!-- Círculo base galaxia -->
  <circle cx="100" cy="100" r="85" fill="url(#galaxyGradient)" />
  
  <!-- Anillo exterior -->
  <circle cx="100" cy="100" r="85" fill="none" stroke="#8A64FF" stroke-width="4" stroke-opacity="0.7" filter="url(#glow)" />
  
  <!-- Líneas orbitales -->
  <ellipse cx="100" cy="100" rx="65" ry="55" fill="none" stroke="#4FFBDF" stroke-width="1" stroke-opacity="0.5" transform="rotate(15, 100, 100)" />
  <ellipse cx="100" cy="100" rx="75" ry="40" fill="none" stroke="#FFFFFF" stroke-width="1" stroke-opacity="0.3" transform="rotate(45, 100, 100)" />
  
  <!-- Estrellas pequeñas -->
  <g fill="#FFFFFF">
    <circle cx="70" cy="60" r="1.5" />
    <circle cx="130" cy="75" r="1" />
    <circle cx="85" cy="120" r="1.2" />
    <circle cx="150" cy="110" r="0.8" />
    <circle cx="60" cy="140" r="1" />
    <circle cx="110" cy="50" r="1.3" />
    <circle cx="125" cy="135" r="1.1" />
    <circle cx="45" cy="95" r="0.9" />
    <circle cx="155" cy="65" r="1.2" />
    <circle cx="90" cy="160" r="1" />
  </g>
  
  <!-- Texto Genesis -->
  <text x="100" y="105" font-family="Arial, sans-serif" font-size="28" font-weight="bold" text-anchor="middle" fill="#FFFFFF" filter="url(#glow)">GENESIS</text>
  
  <!-- Planeta central -->
  <circle cx="100" cy="100" r="10" fill="#4FFBDF" opacity="0.7" filter="url(#glow)" />
  
  <!-- Partículas en órbita -->
  <circle cx="145" cy="100" r="4" fill="#F4B400" opacity="0.8" />
  <circle cx="62" cy="77" r="3" fill="#DB4437" opacity="0.8" />
  <circle cx="100" cy="155" r="3.5" fill="#0F9D58" opacity="0.8" />
</svg>