<?xml version="1.0" encoding="UTF-8" standalone="no"?>
<svg xmlns="http://www.w3.org/2000/svg" width="200" height="200" viewBox="0 0 200 200">
  <defs>
    <linearGradient id="aetherionGradient" x1="0%" y1="0%" x2="100%" y2="100%">
      <stop offset="0%" stop-color="#9c27b0" />
      <stop offset="100%" stop-color="#673ab7" />
    </linearGradient>
    <radialGradient id="aetherionGlow" cx="50%" cy="50%" r="50%" fx="50%" fy="50%">
      <stop offset="0%" stop-color="#ce93d8" stop-opacity="0.8" />
      <stop offset="100%" stop-color="#9c27b0" stop-opacity="0" />
    </radialGradient>
    <filter id="aetherionBlur" x="-50%" y="-50%" width="200%" height="200%">
      <feGaussianBlur stdDeviation="5" result="blur" />
      <feComposite in="SourceGraphic" in2="blur" operator="over" />
    </filter>
  </defs>
  
  <!-- Fondo de resplandor -->
  <circle cx="100" cy="100" r="95" fill="url(#aetherionGlow)" />
  
  <!-- Forma principal -->
  <circle cx="100" cy="100" r="80" fill="url(#aetherionGradient)" filter="url(#aetherionBlur)" />
  
  <!-- Detalles faciales abstractos -->
  <ellipse cx="80" cy="85" rx="12" ry="10" fill="#ffffff" opacity="0.7" />
  <ellipse cx="120" cy="85" rx="12" ry="10" fill="#ffffff" opacity="0.7" />
  
  <!-- Forma de "sonrisa" -->
  <path d="M70,120 Q100,150 130,120" stroke="#ffffff" stroke-width="6" fill="none" opacity="0.7" />
  
  <!-- Patrones de energía -->
  <g opacity="0.7">
    <path d="M100,30 L100,60" stroke="#ffffff" stroke-width="4" />
    <path d="M30,100 L60,100" stroke="#ffffff" stroke-width="4" />
    <path d="M140,100 L170,100" stroke="#ffffff" stroke-width="4" />
    <path d="M100,140 L100,170" stroke="#ffffff" stroke-width="4" />
    
    <path d="M50,50 L70,70" stroke="#ffffff" stroke-width="4" />
    <path d="M150,50 L130,70" stroke="#ffffff" stroke-width="4" />
    <path d="M50,150 L70,130" stroke="#ffffff" stroke-width="4" />
    <path d="M150,150 L130,130" stroke="#ffffff" stroke-width="4" />
  </g>
  
  <!-- Partículas que orbitan -->
  <circle cx="30" cy="100" r="6" fill="#e1bee7" />
  <circle cx="170" cy="100" r="6" fill="#e1bee7" />
  <circle cx="100" cy="30" r="6" fill="#e1bee7" />
  <circle cx="100" cy="170" r="6" fill="#e1bee7" />
  <circle cx="58" cy="58" r="4" fill="#ce93d8" />
  <circle cx="142" cy="58" r="4" fill="#ce93d8" />
  <circle cx="58" cy="142" r="4" fill="#ce93d8" />
  <circle cx="142" cy="142" r="4" fill="#ce93d8" />
</svg>