<?xml version="1.0" encoding="UTF-8"?>
<svg xmlns="http://www.w3.org/2000/svg" width="100" height="100" viewBox="0 0 100 100" fill="none">
  <circle cx="50" cy="50" r="48" fill="url(#paint0_radial)" stroke="#F7931A" stroke-width="2"/>
  <path d="M63.5 43.95C62.35 37.8 56.85 35.4 50.05 36.8L47.75 28.15L42.9 29.45L45.15 37.85C43.7 38.25 42.2 38.7 40.75 39.1L38.5 30.65L33.65 31.95L35.95 40.6C34.75 40.95 33.6 41.3 32.45 41.6L32.4 41.55L25.65 43.35L27.05 48.7C27.05 48.7 30.6 47.8 30.55 47.85C32.55 47.35 33.5 48.65 33.8 49.7L36.45 59.45C36.6 59.45 36.8 59.4 37.05 59.35L36.45 59.5L40.1 73.35C40.15 74.05 39.85 75.15 38.45 75.5C38.5 75.55 34.95 76.5 34.95 76.5L36.05 82.35L42.4 80.65C43.75 80.3 45.05 79.95 46.35 79.65L48.7 88.4L53.55 87.1L51.25 78.4C52.75 78.05 54.2 77.7 55.6 77.35L57.9 86L62.75 84.7L60.4 75.95C69.4 73.95 75.95 69.55 74.45 61.05C73.25 54.15 69.05 51.5 63.25 51.35C67.4 50.2 70.5 47.4 69.7 42.15L63.5 43.95ZM62.95 60.35C64.1 67.2 54.2 69.2 49.4 70.35L46.25 58.7C51.05 57.55 61.8 53.2 62.95 60.35ZM56.05 43.85C57.1 50.1 48.75 51.8 44.7 52.75L41.85 42.2C45.9 41.25 54.95 37.35 56.05 43.85Z" fill="#F7931A"/>
  <defs>
    <radialGradient id="paint0_radial" cx="0" cy="0" r="1" gradientUnits="userSpaceOnUse" gradientTransform="translate(50 50) rotate(90) scale(48)">
      <stop offset="0" stop-color="#FFD700"/>
      <stop offset="1" stop-color="#F7931A"/>
    </radialGradient>
  </defs>
</svg>