<?xml version="1.0" encoding="UTF-8"?>
<svg width="500" height="500" viewBox="0 0 500 500" xmlns="http://www.w3.org/2000/svg">
  <!-- Gradiente radiante para efecto metálico dorado -->
  <defs>
    <linearGradient id="bitcoinGradient" x1="0%" y1="0%" x2="100%" y2="100%">
      <stop offset="0%" stop-color="#f7931a" />
      <stop offset="50%" stop-color="#f7cb1a" />
      <stop offset="100%" stop-color="#f7931a" />
    </linearGradient>
    
    <!-- Gradiente para el borde brillante -->
    <linearGradient id="edgeGradient" x1="0%" y1="0%" x2="100%" y2="100%">
      <stop offset="0%" stop-color="#ffd700" />
      <stop offset="100%" stop-color="#ff8c00" />
    </linearGradient>
    
    <!-- Efecto de brillo holográfico -->
    <filter id="holoGlow" x="-50%" y="-50%" width="200%" height="200%">
      <feGaussianBlur stdDeviation="15" result="blur" />
      <feColorMatrix in="blur" type="matrix" values="1 0 0 0 0  0 1 0 0 0  0 0 1 0 0  0 0 0 18 -7" result="glow" />
      <feBlend in="SourceGraphic" in2="glow" mode="screen" />
    </filter>
    
    <!-- Filtro para luz interna -->
    <filter id="innerLight" x="-20%" y="-20%" width="140%" height="140%">
      <feGaussianBlur in="SourceAlpha" stdDeviation="20" result="blur" />
      <feComposite in="blur" in2="SourceAlpha" operator="in" result="lightBlur" />
      <feBlend in="SourceGraphic" in2="lightBlur" mode="screen" />
    </filter>
  </defs>
  
  <!-- Fondo circular con brillo -->
  <circle cx="250" cy="250" r="240" fill="url(#bitcoinGradient)" filter="url(#innerLight)" />
  
  <!-- Borde brillante -->
  <circle cx="250" cy="250" r="245" stroke="url(#edgeGradient)" stroke-width="10" fill="none" opacity="0.8" />
  
  <!-- Símbolo de Bitcoin -->
  <g fill="#ffffff" transform="translate(135, 105) scale(0.7)">
    <path d="M217.021,167.042c18.631-9.483,30.288-26.184,27.565-54.007c-3.667-38.023-36.526-42.753-78.006-43.125h-0.081
      c-0.411-34.228-0.493-63.669-0.401-95.83H132.21c0.11,29.824-0.066,61.433-0.376,93.003c-10.287,0-20.844,0.016-31.505,0.016
      v-93.019H66.45c0.09,32.506-0.083,63.085-0.358,93.02c-10.535,0-13.699,0-43.337,0.015v33.621c0,0,32.304-0.053,32.184-0.036
      c17.973,0,23.855,10.449,25.719,19.634c0.058,0.288,0.077,1.008,0.086,2.068c2.229,71.447,0.374,156.717,0.107,162.029
      c-0.903,7.517-4.741,16.994-18.423,17.161c0.015,0.013-32.323,0-32.323,0l-4.408,38.359c0,0,32.824,0,32.777,0
      c9.88,0,19.973,0.016,29.733,0.032c0.222,33.799,0.402,66.862,0.593,93.037h33.743c0.111-25.692,0.243-60.049,0.421-93.079
      c11.307,0.033,21.713,0.046,31.86,0.046c0.24,33.233,0.45,59.311,0.721,93.033h33.887c-0.111-31.465-0.25-64.769-0.461-93.325
      c70.354-3.344,100.153-30.217,105.566-74.097C300.552,220.497,276.799,182.962,217.021,167.042z M108.172,98.996
      c19.777,0,80.203-4.123,80.203,34.384c0,35.017-47.639,38.943-80.203,38.943V98.996z M149.278,317.253
      c-21.818,0-41.106,0-41.106,0V234.13c0,0,18.046,0,42.684,0c34.318,0,80.49,8.815,80.49,43.088
      C231.346,309.561,197.275,317.253,149.278,317.253z" />
  </g>
  
  <!-- Efecto de brillo holográfico -->
  <circle cx="250" cy="250" r="230" fill="none" stroke="#ffffff" stroke-width="1.5" opacity="0.4" filter="url(#holoGlow)" />
  
  <!-- Destellos -->
  <g opacity="0.7">
    <circle cx="150" cy="150" r="15" fill="#ffffff" />
    <circle cx="350" cy="150" r="10" fill="#ffffff" />
    <circle cx="200" cy="350" r="12" fill="#ffffff" />
    <circle cx="320" cy="300" r="8" fill="#ffffff" />
  </g>
</svg>