<?xml version="1.0" encoding="UTF-8"?>
<svg width="300" height="150" viewBox="0 0 300 150" xmlns="http://www.w3.org/2000/svg">
  <!-- Filtros para efectos visuales -->
  <defs>
    <filter id="cloudBlur" x="-20%" y="-20%" width="140%" height="140%">
      <feGaussianBlur in="SourceGraphic" stdDeviation="5" result="blur" />
      <feColorMatrix in="blur" type="matrix" values="1 0 0 0 1  0 1 0 0 1  0 0 1 0 1  0 0 0 0.6 0" result="cloudEffect"/>
      <feBlend in="SourceGraphic" in2="cloudEffect" mode="screen" />
    </filter>
    
    <linearGradient id="cloudGradient" x1="0%" y1="0%" x2="100%" y2="100%">
      <stop offset="0%" stop-color="#ffffff" stop-opacity="0.9" />
      <stop offset="50%" stop-color="#f0f0ff" stop-opacity="0.8" />
      <stop offset="100%" stop-color="#e6e6ff" stop-opacity="0.7" />
    </linearGradient>
    
    <filter id="glow" x="-20%" y="-20%" width="140%" height="140%">
      <feGaussianBlur stdDeviation="5" result="blur" />
      <feColorMatrix in="blur" type="matrix" values="1 0 0 0 1  0 1 0 0 1  0 0 1 0 1  0 0 0 0.7 0" result="glowEffect"/>
      <feBlend in="SourceGraphic" in2="glowEffect" mode="screen" />
    </filter>
  </defs>
  
  <!-- Nube principal con forma orgánica -->
  <path d="M45,80 
           C20,80 20,55 40,55 
           C40,35 65,35 75,50 
           C85,35 115,35 120,50 
           C140,35 170,45 170,70 
           C195,70 195,100 170,100 
           C175,115 160,130 140,120 
           C130,135 100,135 90,120 
           C80,135 45,130 45,110 
           C20,110 15,80 45,80 Z" 
        fill="url(#cloudGradient)" 
        filter="url(#cloudBlur)" 
        opacity="0.7" />
  
  <!-- Detalles brillantes -->
  <g opacity="0.6" filter="url(#glow)">
    <ellipse cx="60" cy="60" rx="15" ry="10" fill="#ffffff" />
    <ellipse cx="120" cy="50" rx="20" ry="12" fill="#ffffff" />
    <ellipse cx="150" cy="80" rx="18" ry="10" fill="#ffffff" />
  </g>
  
  <!-- Bordes difuminados para efecto etéreo -->
  <path d="M45,80 
           C20,80 20,55 40,55 
           C40,35 65,35 75,50 
           C85,35 115,35 120,50 
           C140,35 170,45 170,70 
           C195,70 195,100 170,100 
           C175,115 160,130 140,120 
           C130,135 100,135 90,120 
           C80,135 45,130 45,110 
           C20,110 15,80 45,80 Z" 
        fill="none" 
        stroke="#ffffff" 
        stroke-width="2" 
        opacity="0.3" />
</svg>