<?xml version="1.0" encoding="UTF-8"?>
<svg width="160" height="160" viewBox="0 0 160 160" xmlns="http://www.w3.org/2000/svg">
  <!-- Definiciones de gradientes y filtros -->
  <defs>
    <radialGradient id="circleGlow" cx="50%" cy="50%" r="50%" fx="50%" fy="50%">
      <stop offset="0%" stop-color="#fffce6" stop-opacity="0.9" />
      <stop offset="60%" stop-color="#ffd700" stop-opacity="0.8" />
      <stop offset="100%" stop-color="#ffc000" stop-opacity="0.7" />
    </radialGradient>
    
    <linearGradient id="dollarGradient" x1="0%" y1="0%" x2="100%" y2="100%">
      <stop offset="0%" stop-color="#0affff" />
      <stop offset="100%" stop-color="#007b7b" />
    </linearGradient>
    
    <filter id="glow" x="-20%" y="-20%" width="140%" height="140%">
      <feGaussianBlur in="SourceGraphic" stdDeviation="5" result="blur" />
      <feComposite in="blur" in2="SourceGraphic" operator="over" />
    </filter>
  </defs>
  
  <!-- Círculo dorado exterior -->
  <circle cx="80" cy="80" r="75" fill="#1a1a2e" stroke="url(#circleGlow)" stroke-width="5" />
  
  <!-- Puntos dorados alrededor del círculo -->
  <g>
    <!-- Puntos a lo largo del círculo -->
    <circle cx="80" cy="5" r="3" fill="#fffce6" />
    <circle cx="95" cy="6" r="3" fill="#fffce6" />
    <circle cx="110" cy="10" r="3" fill="#fffce6" />
    <circle cx="125" cy="20" r="3" fill="#fffce6" />
    <circle cx="140" cy="35" r="3" fill="#fffce6" />
    <circle cx="150" cy="55" r="3" fill="#fffce6" />
    <circle cx="155" cy="80" r="3" fill="#fffce6" />
    <circle cx="150" cy="105" r="3" fill="#fffce6" />
    <circle cx="140" cy="125" r="3" fill="#fffce6" />
    <circle cx="125" cy="140" r="3" fill="#fffce6" />
    <circle cx="110" cy="150" r="3" fill="#fffce6" />
    <circle cx="95" cy="154" r="3" fill="#fffce6" />
    <circle cx="80" cy="155" r="3" fill="#fffce6" />
    <circle cx="65" cy="154" r="3" fill="#fffce6" />
    <circle cx="50" cy="150" r="3" fill="#fffce6" />
    <circle cx="35" cy="140" r="3" fill="#fffce6" />
    <circle cx="20" cy="125" r="3" fill="#fffce6" />
    <circle cx="10" cy="105" r="3" fill="#fffce6" />
    <circle cx="5" cy="80" r="3" fill="#fffce6" />
    <circle cx="10" cy="55" r="3" fill="#fffce6" />
    <circle cx="20" cy="35" r="3" fill="#fffce6" />
    <circle cx="35" cy="20" r="3" fill="#fffce6" />
    <circle cx="50" cy="10" r="3" fill="#fffce6" />
    <circle cx="65" cy="6" r="3" fill="#fffce6" />
  </g>
  
  <!-- Símbolo de dólar -->
  <path d="M80,40 L80,120 M65,50 C65,45 70,40 80,40 C90,40 95,45 95,55 C95,70 65,75 65,90 C65,95 70,100 80,100 C90,100 95,95 95,90" 
        stroke="url(#dollarGradient)" 
        stroke-width="10" 
        stroke-linecap="round"
        fill="none"
        filter="url(#glow)" />
</svg>