<?xml version="1.0" encoding="UTF-8" standalone="no"?>
<svg xmlns="http://www.w3.org/2000/svg" width="200" height="200" viewBox="0 0 200 200">
  <defs>
    <linearGradient id="lunarethGradient" x1="0%" y1="0%" x2="100%" y2="100%">
      <stop offset="0%" stop-color="#3f51b5" />
      <stop offset="100%" stop-color="#1a237e" />
    </linearGradient>
    <radialGradient id="lunarethGlow" cx="50%" cy="50%" r="50%" fx="50%" fy="50%">
      <stop offset="0%" stop-color="#9fa8da" stop-opacity="0.8" />
      <stop offset="100%" stop-color="#3f51b5" stop-opacity="0" />
    </radialGradient>
    <filter id="lunarethBlur" x="-50%" y="-50%" width="200%" height="200%">
      <feGaussianBlur stdDeviation="5" result="blur" />
      <feComposite in="SourceGraphic" in2="blur" operator="over" />
    </filter>
    <linearGradient id="dataStream" x1="0%" y1="0%" x2="100%" y2="0%">
      <stop offset="0%" stop-color="#3f51b5" />
      <stop offset="50%" stop-color="#90caf9" />
      <stop offset="100%" stop-color="#3f51b5" />
    </linearGradient>
  </defs>
  
  <!-- Fondo de resplandor -->
  <circle cx="100" cy="100" r="95" fill="url(#lunarethGlow)" />
  
  <!-- Forma principal -->
  <circle cx="100" cy="100" r="80" fill="url(#lunarethGradient)" filter="url(#lunarethBlur)" />
  
  <!-- Detalles faciales geométricos -->
  <rect x="75" y="80" width="15" height="10" rx="2" fill="#ffffff" opacity="0.7" />
  <rect x="110" y="80" width="15" height="10" rx="2" fill="#ffffff" opacity="0.7" />
  
  <!-- Forma de "expresión neutral" -->
  <line x1="75" y1="120" x2="125" y2="120" stroke="#ffffff" stroke-width="6" opacity="0.7" />
  
  <!-- Circuitos y patrones de energía -->
  <g opacity="0.7">
    <!-- Circuitos horizontales -->
    <line x1="40" y1="60" x2="160" y2="60" stroke="#90caf9" stroke-width="2" />
    <line x1="50" y1="140" x2="150" y2="140" stroke="#90caf9" stroke-width="2" />
    
    <!-- Circuitos verticales -->
    <line x1="60" y1="40" x2="60" y2="160" stroke="#90caf9" stroke-width="2" />
    <line x1="140" y1="50" x2="140" y2="150" stroke="#90caf9" stroke-width="2" />
    
    <!-- Nodos -->
    <circle cx="60" cy="60" r="4" fill="#1a237e" stroke="#90caf9" stroke-width="1" />
    <circle cx="140" cy="60" r="4" fill="#1a237e" stroke="#90caf9" stroke-width="1" />
    <circle cx="60" cy="140" r="4" fill="#1a237e" stroke="#90caf9" stroke-width="1" />
    <circle cx="140" cy="140" r="4" fill="#1a237e" stroke="#90caf9" stroke-width="1" />
  </g>
  
  <!-- Flujos de datos -->
  <rect x="30" y="100" width="40" height="4" fill="url(#dataStream)" opacity="0.8">
    <animate attributeName="x" values="30;130;30" dur="4s" repeatCount="indefinite" />
  </rect>
  <rect x="130" y="95" width="30" height="4" fill="url(#dataStream)" opacity="0.8">
    <animate attributeName="x" values="130;40;130" dur="3s" repeatCount="indefinite" />
  </rect>
  
  <!-- Anillo exterior -->
  <circle cx="100" cy="100" r="90" fill="none" stroke="#3f51b5" stroke-width="2" stroke-dasharray="5,3" opacity="0.5" />
</svg>