<?xml version="1.0" encoding="UTF-8"?>
<svg width="300" height="300" viewBox="0 0 300 300" xmlns="http://www.w3.org/2000/svg">
  <!-- Definiciones de gradientes y filtros -->
  <defs>
    <radialGradient id="circleGlow" cx="50%" cy="50%" r="50%" fx="50%" fy="50%">
      <stop offset="0%" stop-color="#fffce6" stop-opacity="0.9" />
      <stop offset="60%" stop-color="#ffd700" stop-opacity="0.8" />
      <stop offset="100%" stop-color="#ffc000" stop-opacity="0.7" />
    </radialGradient>
    
    <linearGradient id="gGradient" x1="0%" y1="0%" x2="100%" y2="100%">
      <stop offset="0%" stop-color="#0affff" />
      <stop offset="100%" stop-color="#007b7b" />
    </linearGradient>
    
    <filter id="glow" x="-20%" y="-20%" width="140%" height="140%">
      <feGaussianBlur in="SourceGraphic" stdDeviation="5" result="blur" />
      <feComposite in="blur" in2="SourceGraphic" operator="over" />
    </filter>
    
    <filter id="neonGlow" x="-20%" y="-20%" width="140%" height="140%">
      <feGaussianBlur in="SourceGraphic" stdDeviation="2" result="blur" />
      <feComposite in="blur" in2="SourceGraphic" operator="over" />
    </filter>
  </defs>
  
  <!-- Círculo dorado exterior -->
  <circle cx="150" cy="150" r="110" fill="none" stroke="url(#circleGlow)" stroke-width="8" />
  
  <!-- Letra G -->
  <path d="M180,105 C180,85 165,70 145,70 C125,70 110,85 110,105 C110,125 125,140 145,140 L170,140 L170,120 L145,120 C135,120 130,115 130,105 C130,95 135,90 145,90 C155,90 160,95 160,105 L160,180 C160,190 155,195 145,195 C135,195 130,190 130,180 L130,160 L110,160 L110,180 C110,200 125,215 145,215 C165,215 180,200 180,180 L180,105 Z" 
        fill="url(#gGradient)" filter="url(#glow)" />
  
  <!-- Puntos conectores en la G -->
  <circle cx="145" cy="90" r="4" fill="#0affff" filter="url(#neonGlow)" />
  <circle cx="145" cy="140" r="4" fill="#0affff" filter="url(#neonGlow)" />
  <circle cx="145" cy="215" r="4" fill="#0affff" filter="url(#neonGlow)" />
  <circle cx="110" cy="105" r="4" fill="#0affff" filter="url(#neonGlow)" />
  <circle cx="110" cy="180" r="4" fill="#0affff" filter="url(#neonGlow)" />
  
  <!-- Líneas de conexión -->
  <!-- Superior -->
  <line x1="150" y1="40" x2="150" y2="60" stroke="#000" stroke-width="2" />
  <line x1="130" y1="42" x2="130" y2="62" stroke="#000" stroke-width="2" />
  <line x1="170" y1="42" x2="170" y2="62" stroke="#000" stroke-width="2" />
  <line x1="110" y1="45" x2="110" y2="65" stroke="#000" stroke-width="2" />
  <line x1="190" y1="45" x2="190" y2="65" stroke="#000" stroke-width="2" />
  
  <!-- Puntos finales -->
  <circle cx="150" cy="40" r="6" fill="#fffce6" stroke="#000" stroke-width="1" />
  <circle cx="130" cy="42" r="6" fill="#fffce6" stroke="#000" stroke-width="1" />
  <circle cx="170" cy="42" r="6" fill="#fffce6" stroke="#000" stroke-width="1" />
  <circle cx="110" cy="45" r="6" fill="#fffce6" stroke="#000" stroke-width="1" />
  <circle cx="190" cy="45" r="6" fill="#fffce6" stroke="#000" stroke-width="1" />
  
  <!-- Lateral izquierdo -->
  <line x1="40" y1="150" x2="60" y2="150" stroke="#000" stroke-width="2" />
  <line x1="42" y1="130" x2="62" y2="130" stroke="#000" stroke-width="2" />
  <line x1="42" y1="170" x2="62" y2="170" stroke="#000" stroke-width="2" />
  <line x1="45" y1="110" x2="65" y2="110" stroke="#000" stroke-width="2" />
  <line x1="45" y1="190" x2="65" y2="190" stroke="#000" stroke-width="2" />
  
  <!-- Puntos finales -->
  <circle cx="40" cy="150" r="6" fill="#fffce6" stroke="#000" stroke-width="1" />
  <circle cx="42" cy="130" r="6" fill="#fffce6" stroke="#000" stroke-width="1" />
  <circle cx="42" cy="170" r="6" fill="#fffce6" stroke="#000" stroke-width="1" />
  <circle cx="45" cy="110" r="6" fill="#fffce6" stroke="#000" stroke-width="1" />
  <circle cx="45" cy="190" r="6" fill="#fffce6" stroke="#000" stroke-width="1" />
  
  <!-- Lateral derecho -->
  <line x1="260" y1="150" x2="240" y2="150" stroke="#000" stroke-width="2" />
  <line x1="258" y1="130" x2="238" y2="130" stroke="#000" stroke-width="2" />
  <line x1="258" y1="170" x2="238" y2="170" stroke="#000" stroke-width="2" />
  <line x1="255" y1="110" x2="235" y2="110" stroke="#000" stroke-width="2" />
  <line x1="255" y1="190" x2="235" y2="190" stroke="#000" stroke-width="2" />
  
  <!-- Puntos finales -->
  <circle cx="260" cy="150" r="6" fill="#fffce6" stroke="#000" stroke-width="1" />
  <circle cx="258" cy="130" r="6" fill="#fffce6" stroke="#000" stroke-width="1" />
  <circle cx="258" cy="170" r="6" fill="#fffce6" stroke="#000" stroke-width="1" />
  <circle cx="255" cy="110" r="6" fill="#fffce6" stroke="#000" stroke-width="1" />
  <circle cx="255" cy="190" r="6" fill="#fffce6" stroke="#000" stroke-width="1" />
  
  <!-- Inferior -->
  <line x1="150" y1="260" x2="150" y2="240" stroke="#000" stroke-width="2" />
  <line x1="130" y1="258" x2="130" y2="238" stroke="#000" stroke-width="2" />
  <line x1="170" y1="258" x2="170" y2="238" stroke="#000" stroke-width="2" />
  <line x1="110" y1="255" x2="110" y2="235" stroke="#000" stroke-width="2" />
  <line x1="190" y1="255" x2="190" y2="235" stroke="#000" stroke-width="2" />
  
  <!-- Puntos finales -->
  <circle cx="150" cy="260" r="6" fill="#fffce6" stroke="#000" stroke-width="1" />
  <circle cx="130" cy="258" r="6" fill="#fffce6" stroke="#000" stroke-width="1" />
  <circle cx="170" cy="258" r="6" fill="#fffce6" stroke="#000" stroke-width="1" />
  <circle cx="110" cy="255" r="6" fill="#fffce6" stroke="#000" stroke-width="1" />
  <circle cx="190" cy="255" r="6" fill="#fffce6" stroke="#000" stroke-width="1" />
</svg>