<?xml version="1.0" encoding="UTF-8" standalone="no"?>
<svg xmlns="http://www.w3.org/2000/svg" width="48" height="48" viewBox="0 0 48 48" fill="none">
  <path d="M24 4C12.95 4 4 12.95 4 24C4 35.05 12.95 44 24 44C35.05 44 44 35.05 44 24C44 12.95 35.05 4 24 4ZM24 40C15.18 40 8 32.82 8 24C8 15.18 15.18 8 24 8C32.82 8 40 15.18 40 24C40 32.82 32.82 40 24 40Z" fill="white"/>
  <path d="M24 14C18.48 14 14 18.48 14 24C14 29.52 18.48 34 24 34C29.52 34 34 29.52 34 24C34 18.48 29.52 14 24 14ZM24 30C20.69 30 18 27.31 18 24C18 20.69 20.69 18 24 18C27.31 18 30 20.69 30 24C30 27.31 27.31 30 24 30Z" fill="white"/>
  <path d="M24 20C21.79 20 20 21.79 20 24C20 26.21 21.79 28 24 28C26.21 28 28 26.21 28 24C28 21.79 26.21 20 24 20Z" fill="white"/>
  <path d="M38 10L34 14M10 38L14 34M38 38L34 34M10 10L14 14" stroke="white" stroke-width="2" stroke-linecap="round"/>
</svg>