<?xml version="1.0" encoding="UTF-8" standalone="no"?>
<svg xmlns="http://www.w3.org/2000/svg" width="48" height="48" viewBox="0 0 48 48" fill="none">
  <path d="M24 4C21.8 4 20 5.8 20 8C20 10.2 21.8 12 24 12C26.2 12 28 10.2 28 8C28 5.8 26.2 4 24 4Z" fill="white"/>
  <path d="M36 16C38.2 16 40 14.2 40 12C40 9.8 38.2 8 36 8C33.8 8 32 9.8 32 12C32 14.2 33.8 16 36 16Z" fill="white"/>
  <path d="M12 16C14.2 16 16 14.2 16 12C16 9.8 14.2 8 12 8C9.8 8 8 9.8 8 12C8 14.2 9.8 16 12 16Z" fill="white"/>
  <path d="M36 24C38.2 24 40 22.2 40 20C40 17.8 38.2 16 36 16C33.8 16 32 17.8 32 20C32 22.2 33.8 24 36 24Z" fill="white"/>
  <path d="M12 24C14.2 24 16 22.2 16 20C16 17.8 14.2 16 12 16C9.8 16 8 17.8 8 20C8 22.2 9.8 24 12 24Z" fill="white"/>
  <path d="M24 28C26.2 28 28 26.2 28 24C28 21.8 26.2 20 24 20C21.8 20 20 21.8 20 24C20 26.2 21.8 28 24 28Z" fill="white"/>
  <path d="M36 32C38.2 32 40 30.2 40 28C40 25.8 38.2 24 36 24C33.8 24 32 25.8 32 28C32 30.2 33.8 32 36 32Z" fill="white"/>
  <path d="M12 32C14.2 32 16 30.2 16 28C16 25.8 14.2 24 12 24C9.8 24 8 25.8 8 28C8 30.2 9.8 32 12 32Z" fill="white"/>
  <path d="M24 36C26.2 36 28 34.2 28 32C28 29.8 26.2 28 24 28C21.8 28 20 29.8 20 32C20 34.2 21.8 36 24 36Z" fill="white"/>
  <path d="M24 44C26.2 44 28 42.2 28 40C28 37.8 26.2 36 24 36C21.8 36 20 37.8 20 40C20 42.2 21.8 44 24 44Z" fill="white"/>
  <path d="M16 20L20 24" stroke="white" stroke-width="2" stroke-linecap="round"/>
  <path d="M28 24L32 20" stroke="white" stroke-width="2" stroke-linecap="round"/>
  <path d="M24 12V20" stroke="white" stroke-width="2" stroke-linecap="round"/>
  <path d="M24 28V36" stroke="white" stroke-width="2" stroke-linecap="round"/>
  <path d="M16 28L20 24" stroke="white" stroke-width="2" stroke-linecap="round"/>
  <path d="M28 24L32 28" stroke="white" stroke-width="2" stroke-linecap="round"/>
</svg>