<?xml version="1.0" encoding="UTF-8" standalone="no"?>
<svg xmlns="http://www.w3.org/2000/svg" width="48" height="48" viewBox="0 0 48 48" fill="none">
  <path d="M42 34V38H6V10H10V34H42Z" fill="white"/>
  <path d="M14 30H18V26H14V30ZM22 30H26V20H22V30ZM30 30H34V14H30V30Z" fill="white"/>
  <path d="M42 6H34V10H42V18H46V10C46 7.8 44.2 6 42 6Z" fill="white"/>
  <path d="M34 30L42 22L38 18L30 26L34 30Z" fill="white"/>
  <path d="M10 10C10 7.8 11.8 6 14 6H22C24.2 6 26 7.8 26 10H10Z" fill="white"/>
  <path d="M22 18L18 14L14 18L18 22L22 18Z" fill="white"/>
</svg>