<?xml version="1.0" encoding="UTF-8" standalone="no"?>
<svg xmlns="http://www.w3.org/2000/svg" width="48" height="48" viewBox="0 0 48 48" fill="none">
  <path d="M40 8H8C5.8 8 4 9.8 4 12V36C4 38.2 5.8 40 8 40H40C42.2 40 44 38.2 44 36V12C44 9.8 42.2 8 40 8ZM40 36H8V12H40V36Z" fill="white"/>
  <path d="M26 30H22C20.9 30 20 29.1 20 28V26H24V24H20V22H24V20H20V18H26C27.1 18 28 18.9 28 20V22C28 23.1 27.1 24 26 24H24V26H28V28C28 29.1 27.1 30 26 30Z" fill="white"/>
  <path d="M14 18H10V24H14V18Z" fill="white"/>
  <path d="M38 24H34V30H38V24Z" fill="white"/>
  <path d="M4 24H8M40 24H44" stroke="white" stroke-width="2" stroke-linecap="round"/>
</svg>