<?xml version="1.0" encoding="UTF-8" standalone="no"?>
<svg xmlns="http://www.w3.org/2000/svg" width="48" height="48" viewBox="0 0 48 48" fill="none">
  <path d="M24 4C18.48 4 14 8.48 14 14C14 19.52 18.48 24 24 24C29.52 24 34 19.52 34 14C34 8.48 29.52 4 24 4ZM24 20C20.69 20 18 17.31 18 14C18 10.69 20.69 8 24 8C27.31 8 30 10.69 30 14C30 17.31 27.31 20 24 20Z" fill="white"/>
  <path d="M24 26C17.17 26 4 29.42 4 36V44H44V36C44 29.42 30.83 26 24 26ZM40 40H8V36.02C8.59 34.7 15.03 30 24 30C32.97 30 39.41 34.7 40 36V40Z" fill="white"/>
  <path d="M26 14H22L21 11L24 8L27 11L26 14Z" fill="white"/>
  <path d="M14.01 30.01L17.74 33.74C16.9 34.18 16.08 34.63 15.31 35.1L14.01 30.01Z" fill="white"/>
  <path d="M33.99 30.01L32.69 35.1C31.92 34.63 31.1 34.18 30.26 33.74L33.99 30.01Z" fill="white"/>
</svg>