<?xml version="1.0" encoding="UTF-8" standalone="no"?>
<svg xmlns="http://www.w3.org/2000/svg" width="48" height="48" viewBox="0 0 48 48" fill="none">
  <path d="M24 4L6 12V22C6 32.1 13.68 41.48 24 44C34.32 41.48 42 32.1 42 22V12L24 4ZM38 22C38 30.28 32.04 37.72 24 40.08C15.96 37.72 10 30.28 10 22V14.8L24 8.54L38 14.8V22Z" fill="white"/>
  <path d="M24 14C20.69 14 18 16.69 18 20C18 22.24 19.21 24.17 21 25.15V30C21 31.66 22.34 33 24 33C25.66 33 27 31.66 27 30V25.15C28.79 24.17 30 22.24 30 20C30 16.69 27.31 14 24 14ZM25.6 23.25L24.3 24V30C24.3 30.16 24.16 30.3 24 30.3C23.84 30.3 23.7 30.16 23.7 30V24L22.4 23.25C21.54 22.77 21 21.44 21 20C21 18.34 22.34 17 24 17C25.66 17 27 18.34 27 20C27 21.44 26.46 22.77 25.6 23.25Z" fill="white"/>
  <path d="M14 16L12 18M34 16L36 18" stroke="white" stroke-width="2" stroke-linecap="round"/>
</svg>