<?xml version="1.0" encoding="UTF-8" standalone="no"?>
<svg xmlns="http://www.w3.org/2000/svg" width="48" height="48" viewBox="0 0 48 48" fill="none">
  <path d="M24 44C24 44 40 36 40 24V10L24 4L8 10V24C8 36 24 44 24 44Z" stroke="white" stroke-width="2" stroke-miterlimit="10" stroke-linecap="round" stroke-linejoin="round"/>
  <path d="M24 36C24 36 34 30 34 22V13L24 9L14 13V22C14 30 24 36 24 36Z" fill="white" fill-opacity="0.4" stroke="white" stroke-width="2" stroke-miterlimit="10" stroke-linecap="round" stroke-linejoin="round"/>
  <path d="M24 28C26.2091 28 28 26.2091 28 24C28 21.7909 26.2091 20 24 20C21.7909 20 20 21.7909 20 24C20 26.2091 21.7909 28 24 28Z" fill="white"/>
  <path d="M20 24.1L22 26.1L28 20.1" stroke="#7642FF" stroke-width="2" stroke-linecap="round" stroke-linejoin="round"/>
</svg>