<svg width="64" height="64" viewBox="0 0 64 64" fill="none" xmlns="http://www.w3.org/2000/svg">
  <defs>
    <linearGradient id="gradientPurple" x1="0%" y1="0%" x2="100%" y2="100%">
      <stop offset="0%" stop-color="#6548bf" />
      <stop offset="100%" stop-color="#9e6bdb" />
    </linearGradient>
    <linearGradient id="gradientBlue" x1="0%" y1="0%" x2="100%" y2="100%">
      <stop offset="0%" stop-color="#5b8af7" />
      <stop offset="100%" stop-color="#42c9a0" />
    </linearGradient>
    <filter id="glow" x="-30%" y="-30%" width="160%" height="160%">
      <feGaussianBlur stdDeviation="2" result="blur" />
      <feComposite in="SourceGraphic" in2="blur" operator="over" />
    </filter>
  </defs>
  
  <!-- Fondo circular -->
  <circle cx="32" cy="32" r="30" fill="#0d0d21" />
  
  <!-- Círculos decorativos -->
  <circle cx="32" cy="32" r="24" stroke="url(#gradientPurple)" stroke-width="1.5" stroke-opacity="0.5" fill="none" />
  <circle cx="32" cy="32" r="18" stroke="url(#gradientBlue)" stroke-width="1" stroke-opacity="0.3" fill="none" />
  
  <!-- Letra G -->
  <path d="M22 20H42C43.1046 20 44 20.8954 44 22V28C44 29.1046 43.1046 30 42 30H34V32H42C43.1046 32 44 32.8954 44 34V42C44 43.1046 43.1046 44 42 44H22C20.8954 44 20 43.1046 20 42V22C20 20.8954 20.8954 20 22 20Z" fill="url(#gradientPurple)" filter="url(#glow)" />
  
  <!-- Línea horizontal -->
  <line x1="34" y1="32" x2="34" y2="36" stroke="url(#gradientBlue)" stroke-width="2" stroke-linecap="round" />
  
  <!-- Estrellas pequeñas -->
  <circle cx="16" cy="16" r="1" fill="#ffffff" opacity="0.6" />
  <circle cx="48" cy="48" r="1" fill="#ffffff" opacity="0.6" />
  <circle cx="50" cy="20" r="0.8" fill="#ffffff" opacity="0.6" />
  <circle cx="14" cy="44" r="0.8" fill="#ffffff" opacity="0.6" />
</svg>